<?xml version="1.0" encoding="utf-8"?>
<!-- Generator: Adobe Illustrator 19.0.0, SVG Export Plug-In . SVG Version: 6.00 Build 0)  -->
<svg version="1.1" id="Layer_1" xmlns="http://www.w3.org/2000/svg" xmlns:xlink="http://www.w3.org/1999/xlink" x="0px" y="0px"
	 viewBox="0 0 120 35" style="enable-background:new 0 0 120 35;" xml:space="preserve">
<g id="XMLID_15_">
	<g id="XMLID_66_">
		<path id="XMLID_85_" d="M0.8,20.7V4.6h3.1v16.1H0.8z"/>
		<path id="XMLID_83_" d="M15.2,20.7H12L5.5,4.6H9L13.6,17l4.6-12.4h3.4L15.2,20.7z"/>
		<path id="XMLID_80_" d="M36.9,16.1c-0.9,2.8-3.5,5.1-7.3,5.1c-4.3,0-8.2-3.1-8.2-8.6c0-5,3.7-8.5,7.7-8.5c5,0,7.8,3.4,7.8,8.4
			c0,0.4,0,0.8-0.1,1H24.7c0.1,2.9,2.2,4.9,4.9,4.9c2.6,0,3.9-1.4,4.5-3.2L36.9,16.1z M33.7,11c-0.1-2.3-1.6-4.1-4.4-4.1
			c-2.7,0-4.3,2-4.4,4.1H33.7z"/>
		<path id="XMLID_78_" d="M42.7,20.7h-3.2V4.6h3.1v2.3c1.2-2,3.1-2.8,5-2.8c3.9,0,5.8,2.8,5.8,6.3v10.2h-3.2V11c0-2.2-0.9-4-3.8-4
			c-2.5,0-3.8,2-3.8,4.4V20.7z"/>
		<path id="XMLID_76_" d="M61,4.6h3.5v2.8H61v8.3c0,1.5,0.6,2.2,2.3,2.2c0.4,0,1-0.1,1.2-0.1v2.7c-0.3,0.1-1.1,0.3-2.2,0.3
			c-2.8,0-4.5-1.7-4.5-4.6V7.5h-3.1V4.6h0.9c1.8,0,2.5-1.1,2.5-2.5V0.6H61V4.6z"/>
		<path id="XMLID_74_" d="M66.8,20.7V4.6H70v16.1H66.8z"/>
		<path id="XMLID_71_" d="M88.8,12.6c0,4.9-3.4,8.5-8.3,8.5s-8.3-3.6-8.3-8.5c0-4.9,3.4-8.5,8.3-8.5S88.8,7.8,88.8,12.6z M85.6,12.6
			c0-3.7-2.4-5.7-5.1-5.7c-2.7,0-5.1,2-5.1,5.7c0,3.7,2.4,5.7,5.1,5.7C83.2,18.4,85.6,16.4,85.6,12.6z"/>
		<path id="XMLID_69_" d="M94.4,20.7h-3.2V4.6h3.1v2.3c1.2-2,3.1-2.8,5-2.8c3.9,0,5.8,2.8,5.8,6.3v10.2H102V11c0-2.2-0.9-4-3.8-4
			c-2.5,0-3.8,2-3.8,4.4V20.7z"/>
		<path id="XMLID_67_" d="M110,15.5c0.2,1.7,1.5,3,3.8,3c1.8,0,2.8-1,2.8-2.1c0-1-0.7-1.8-2.1-2.1l-2.8-0.6c-2.5-0.5-4-2.2-4-4.5
			c0-2.7,2.6-5.1,5.8-5.1c4.4,0,5.8,2.9,6.2,4.3l-2.8,1c-0.1-0.8-0.8-2.7-3.4-2.7c-1.6,0-2.7,1-2.7,2.1c0,1,0.6,1.7,1.9,1.9l2.6,0.6
			c2.9,0.6,4.5,2.4,4.5,4.8c0,2.3-1.9,5-5.9,5c-4.4,0-6.3-2.8-6.6-4.7L110,15.5z"/>
	</g>
	<g id="XMLID_16_">
		<g id="XMLID_18_">
			<path id="XMLID_64_" d="M5.5,27.8L7,32.1l1.3-4.3h1.2l-1.9,5.8H6.4l-1.5-4.4l-1.5,4.4H2.2l-1.9-5.8h1.2l1.3,4.3l1.5-4.3H5.5z"/>
			<path id="XMLID_61_" d="M15.2,31.9c-0.3,1-1.2,1.8-2.6,1.8c-1.5,0-2.9-1.1-2.9-3.1c0-1.8,1.3-3,2.8-3c1.8,0,2.8,1.2,2.8,3
				c0,0.1,0,0.3,0,0.4h-4.3c0,1,0.8,1.7,1.7,1.7c0.9,0,1.4-0.5,1.6-1.2L15.2,31.9z M14.1,30.1c0-0.8-0.6-1.5-1.6-1.5
				c-0.9,0-1.5,0.7-1.6,1.5H14.1z"/>
			<path id="XMLID_58_" d="M20.8,30.3l1.6-0.2c0.3,0,0.4-0.2,0.4-0.4c0-0.6-0.4-1-1.2-1c-0.8,0-1.2,0.5-1.3,1.2l-1.1-0.3
				c0.1-1.1,1.1-1.9,2.4-1.9c1.7,0,2.4,1,2.4,2.1v2.9c0,0.5,0,0.8,0.1,0.9h-1.1c0-0.1-0.1-0.4-0.1-0.8c-0.3,0.4-0.8,1-1.9,1
				c-1.2,0-1.9-0.8-1.9-1.7C19.1,31,19.8,30.4,20.8,30.3z M22.8,31.1v-0.3L21,31.1c-0.5,0.1-0.8,0.3-0.8,0.9c0,0.4,0.4,0.8,0.9,0.8
				C22.1,32.8,22.8,32.4,22.8,31.1z"/>
			<path id="XMLID_56_" d="M28.6,28.9c-0.2,0-0.3,0-0.5,0c-0.9,0-1.6,0.5-1.6,1.8v2.9h-1.1v-5.8h1.1v1c0.4-0.9,1.1-1.1,1.7-1.1
				c0.2,0,0.3,0,0.4,0V28.9z"/>
			<path id="XMLID_53_" d="M34.5,31.9c-0.3,1-1.2,1.8-2.6,1.8c-1.5,0-2.9-1.1-2.9-3.1c0-1.8,1.3-3,2.8-3c1.8,0,2.8,1.2,2.8,3
				c0,0.1,0,0.3,0,0.4h-4.3c0,1,0.8,1.7,1.7,1.7c0.9,0,1.4-0.5,1.6-1.2L34.5,31.9z M33.4,30.1c0-0.8-0.6-1.5-1.6-1.5
				c-0.9,0-1.5,0.7-1.6,1.5H33.4z"/>
			<path id="XMLID_50_" d="M43.8,31.9c-0.3,1-1.2,1.8-2.6,1.8c-1.5,0-2.9-1.1-2.9-3.1c0-1.8,1.3-3,2.8-3c1.8,0,2.8,1.2,2.8,3
				c0,0.1,0,0.3,0,0.4h-4.3c0,1,0.8,1.7,1.7,1.7c0.9,0,1.4-0.5,1.6-1.2L43.8,31.9z M42.6,30.1c0-0.8-0.6-1.5-1.6-1.5
				c-0.9,0-1.5,0.7-1.6,1.5H42.6z"/>
			<path id="XMLID_48_" d="M47.5,33.6h-1.1L44,27.8h1.3l1.6,4.4l1.7-4.4h1.2L47.5,33.6z"/>
			<path id="XMLID_45_" d="M55.5,31.9c-0.3,1-1.2,1.8-2.6,1.8c-1.5,0-2.9-1.1-2.9-3.1c0-1.8,1.3-3,2.8-3c1.8,0,2.8,1.2,2.8,3
				c0,0.1,0,0.3,0,0.4h-4.3c0,1,0.8,1.7,1.7,1.7c0.9,0,1.4-0.5,1.6-1.2L55.5,31.9z M54.3,30.1c0-0.8-0.6-1.5-1.6-1.5
				c-0.9,0-1.5,0.7-1.6,1.5H54.3z"/>
			<path id="XMLID_43_" d="M57.8,33.6h-1.1v-5.8h1.1v0.8c0.4-0.7,1.1-1,1.8-1c1.4,0,2.1,1,2.1,2.3v3.7h-1.1v-3.5
				c0-0.8-0.3-1.5-1.3-1.5c-0.9,0-1.3,0.7-1.3,1.6V33.6z"/>
			<path id="XMLID_41_" d="M64.6,27.8h1.2v1h-1.2v3c0,0.5,0.2,0.8,0.8,0.8c0.1,0,0.3,0,0.4,0v1c-0.1,0-0.4,0.1-0.8,0.1
				c-1,0-1.6-0.6-1.6-1.6v-3.2h-1.1v-1h0.3c0.6,0,0.9-0.4,0.9-0.9v-0.7h1V27.8z"/>
			<path id="XMLID_38_" d="M71.5,30.3L73,30c0.3,0,0.4-0.2,0.4-0.4c0-0.6-0.4-1-1.2-1c-0.8,0-1.2,0.5-1.3,1.2l-1.1-0.3
				c0.1-1.1,1.1-1.9,2.4-1.9c1.7,0,2.4,1,2.4,2.1v2.9c0,0.5,0,0.8,0.1,0.9h-1.1c0-0.1-0.1-0.4-0.1-0.8c-0.3,0.4-0.8,1-1.9,1
				c-1.2,0-1.9-0.8-1.9-1.7C69.7,31,70.5,30.4,71.5,30.3z M73.5,31.1v-0.3l-1.8,0.3c-0.5,0.1-0.8,0.3-0.8,0.9c0,0.4,0.4,0.8,0.9,0.8
				C72.7,32.8,73.5,32.4,73.5,31.1z"/>
			<path id="XMLID_36_" d="M79.3,28.9c-0.2,0-0.3,0-0.5,0c-0.9,0-1.6,0.5-1.6,1.8v2.9h-1.1v-5.8h1.1v1c0.4-0.9,1.1-1.1,1.7-1.1
				c0.2,0,0.3,0,0.4,0V28.9z"/>
			<path id="XMLID_34_" d="M80.9,30.7c0,1.3,0.8,2,1.8,2c1.1,0,1.5-0.7,1.6-1.2l1,0.4c-0.3,0.8-1.1,1.8-2.6,1.8
				c-1.7,0-2.9-1.3-2.9-3.1c0-1.8,1.3-3.1,2.9-3.1c1.5,0,2.3,1,2.6,1.8l-1,0.4c-0.1-0.6-0.6-1.2-1.5-1.2
				C81.7,28.7,80.9,29.3,80.9,30.7z"/>
			<path id="XMLID_32_" d="M87.4,33.6h-1.1v-8.4h1.1v3.3c0.4-0.6,1.1-0.8,1.7-0.8c1.4,0,2.1,1,2.1,2.3v3.7h-1.1v-3.5
				c0-0.8-0.3-1.5-1.3-1.5c-0.9,0-1.3,0.7-1.3,1.5V33.6z"/>
			<path id="XMLID_30_" d="M92.7,33.6v-5.8h1.1v5.8H92.7z"/>
			<path id="XMLID_28_" d="M96.9,27.8h1.2v1h-1.2v3c0,0.5,0.2,0.8,0.8,0.8c0.1,0,0.3,0,0.4,0v1c-0.1,0-0.4,0.1-0.8,0.1
				c-1,0-1.6-0.6-1.6-1.6v-3.2h-1.1v-1H95c0.6,0,0.9-0.4,0.9-0.9v-0.7h1V27.8z"/>
			<path id="XMLID_25_" d="M104.2,31.9c-0.3,1-1.2,1.8-2.6,1.8c-1.5,0-2.9-1.1-2.9-3.1c0-1.8,1.3-3,2.8-3c1.8,0,2.8,1.2,2.8,3
				c0,0.1,0,0.3,0,0.4h-4.3c0,1,0.8,1.7,1.7,1.7c0.9,0,1.4-0.5,1.6-1.2L104.2,31.9z M103.1,30.1c0-0.8-0.6-1.5-1.6-1.5
				c-0.9,0-1.5,0.7-1.6,1.5H103.1z"/>
			<path id="XMLID_23_" d="M106.2,30.7c0,1.3,0.8,2,1.8,2c1.1,0,1.5-0.7,1.6-1.2l1,0.4c-0.3,0.8-1.1,1.8-2.6,1.8
				c-1.7,0-2.9-1.3-2.9-3.1c0-1.8,1.3-3.1,2.9-3.1c1.5,0,2.3,1,2.6,1.8l-1,0.4c-0.1-0.6-0.6-1.2-1.5-1.2
				C107,28.7,106.2,29.3,106.2,30.7z"/>
			<path id="XMLID_21_" d="M113.3,27.8h1.2v1h-1.2v3c0,0.5,0.2,0.8,0.8,0.8c0.1,0,0.3,0,0.4,0v1c-0.1,0-0.4,0.1-0.8,0.1
				c-1,0-1.6-0.6-1.6-1.6v-3.2H111v-1h0.3c0.6,0,0.9-0.4,0.9-0.9v-0.7h1V27.8z"/>
			<path id="XMLID_19_" d="M116.3,31.7c0.1,0.6,0.5,1.1,1.3,1.1c0.6,0,1-0.4,1-0.8c0-0.4-0.3-0.6-0.7-0.7l-1-0.2
				c-0.9-0.2-1.4-0.8-1.4-1.6c0-1,0.9-1.8,2-1.8c1.6,0,2.1,1,2.2,1.5l-1,0.4c0-0.3-0.3-1-1.2-1c-0.6,0-1,0.4-1,0.8
				c0,0.3,0.2,0.6,0.7,0.7l0.9,0.2c1,0.2,1.6,0.9,1.6,1.7c0,0.8-0.7,1.8-2.1,1.8c-1.6,0-2.3-1-2.3-1.7L116.3,31.7z"/>
		</g>
		<path id="XMLID_17_" d="M93.2,25c0.5,0,0.8,0.4,0.8,0.8c0,0.4-0.4,0.8-0.8,0.8c-0.4,0-0.8-0.4-0.8-0.8C92.4,25.3,92.8,25,93.2,25z
			"/>
	</g>
</g>
</svg>
