<?xml version="1.0" encoding="utf-8"?>
<!-- Generator: Adobe Illustrator 24.2.0, SVG Export Plug-In . SVG Version: 6.00 Build 0)  -->
<svg version="1.1" id="Capa_1" xmlns="http://www.w3.org/2000/svg" xmlns:xlink="http://www.w3.org/1999/xlink" x="0px" y="0px"
	 viewBox="0 0 1152.5 330.5" style="enable-background:new 0 0 1152.5 330.5;" xml:space="preserve">
<style type="text/css">
	.st0{fill:#003793;}
	.st1{fill:#3573FC;}
	.st2{fill:#FFFFFF;}
</style>
<g>
	<g>
		<g>
			<path class="st0" d="M201.7,53.6c-4.4,21.7-18.6,42.6-46,58.7c-3.2,51.8-25.4,85.6-56,104c2.9,0.2,5.7,0.4,8.7,0.4
				c59.8,0,108.4-48.5,108.4-108.4C216.7,88.3,211.2,69.7,201.7,53.6z"/>
			<path class="st1" d="M155.5,112.2c4.3-22.1,5.1-47.5,1.5-78.1c-1-8.5-2.4-16.6-4-24.4C139.4,3.5,124.3,0,108.4,0
				C48.5,0,0,48.5,0,108.4c0,25.3,8.8,48.6,23.3,67c11.2-3.1,22.7-6.7,34.3-11C98.7,149.3,130.4,131.9,155.5,112.2z"/>
		</g>
	</g>
	<g>
		<g>
			<path class="st0" d="M348.3,54.8c-36.9,0-63.1,26-63.1,62.4s26.3,62.4,63.1,62.4c36.9,0,63.1-26,63.1-62.4S385.1,54.8,348.3,54.8
				z M348.3,155.8c-21.5,0-36.9-16.4-36.9-38.6c0-22.5,15.4-38.6,36.9-38.6c21.5,0,36.9,16.2,36.9,38.6
				C385.1,139.3,369.7,155.8,348.3,155.8z"/>
			<path class="st0" d="M621.1,55c-15.1,0-28,4.5-37.9,12.1v-9.3H557V235h26.3v-67.9c9.8,7.6,22.7,12.1,37.9,12.1
				c33.3,0,60.3-27.5,60.3-62.1C681.5,82.5,654.5,55,621.1,55z M617.4,156.5c-13.1,0-25.2-5-34.1-17.7V95.4
				c8.8-12.6,21-17.7,34.1-17.7c22,0,37.9,18.2,37.9,39.4C655.2,138.3,639.3,156.5,617.4,156.5z"/>
			<path class="st0" d="M758.5,54.8c-36.1,0-61.1,27.3-61.1,62.4c0,35.3,25.2,62.4,62.6,62.4c25.7,0,46.7-12.6,54.3-34.1h-28.8
				c-4.8,7.6-13.6,11.1-25.2,11.1c-22.2,0-33.6-13.6-36.1-31.6h93.1C822.3,84.8,797.8,54.8,758.5,54.8z M724.6,106.8
				c3-16.7,14.4-29.8,34.1-29.8c18.4,0,31,10.4,32.6,29.8H724.6z"/>
			<path class="st0" d="M866.2,74V57.8H840v118.6h26.3v-74.7c10.6-13.9,25-21,43.9-21.7V55.3C892,55.3,877.1,62.1,866.2,74z"/>
			<path class="st0" d="M996,155.2c-14.6,0-23.2-7.3-23.2-24.5v-51h43.9v-22h-43.9V14.1h-26.3v43.7h-28v22h28v51
				c0,30.5,16.2,48.7,46.4,48.7c8.1,0,16.7-1,27-4.8l-3.8-24C1010.2,153.2,1003.1,155.2,996,155.2z"/>
			<path class="st0" d="M1126.5,57.8v9.3c-10.1-7.8-23-12.4-38.1-12.4c-33.3,0-60.1,27.8-60.1,62.4c0,34.6,26.8,62.4,60.1,62.4
				c15.1,0,28-4.5,38.1-12.4v9.3h26V57.8H1126.5z M1126.5,138.6c-8.8,12.6-21.2,17.2-34.3,17.2c-21.7,0-37.6-17.4-37.6-38.6
				c0-21.2,15.9-38.6,37.6-38.6c13.1,0,25.5,4.5,34.3,17.2V138.6z"/>
			<g>
				<path class="st0" d="M506.9,100.2l31.8-42.6h-31.3l-22.5,28.9c-5.1,6.6-7.9,14.7-7.9,23c0-8.3-2.8-16.4-7.9-23l-22.5-28.9h-31.3
					l31.8,42.6c7.1,9.5,18.2,15,30,15c-11.8,0-22.9,5.6-30,15l-31.8,42.6h31.3L469,144c5.1-6.6,7.9-14.7,7.9-23
					c0,8.3,2.8,16.4,7.9,23l22.5,28.9h31.3l-31.8-42.6c-7.1-9.5-18.2-15-30-15C488.7,115.2,499.8,109.7,506.9,100.2z"/>
			</g>
		</g>
	</g>
	<g>
		<g>
			<path class="st0" d="M689.9,262v25.8h39.5v8.1h-39.5v25.2h43.9v8.1h-52.7v-75.2h52.7v8.1H689.9z"/>
			<path class="st0" d="M800.3,329.1l-23.8-30.8l-23.9,30.8h-10.2l28.2-37.4l-27.4-37.8h10.7l22.6,31l22.5-31h10.7l-27.4,37.8
				l28.3,37.4H800.3z"/>
			<path class="st0" d="M876.3,278.9c0,15.6-12.1,25.9-30.1,25.9h-16.7v24.3h-8.7v-75.2h26.5C864.7,253.9,876.3,263.9,876.3,278.9z
				 M867.6,278.9c0-10.2-8.3-17-20.7-17h-17.5v34.8H847C859.3,296.7,867.6,289.7,867.6,278.9z"/>
			<path class="st0" d="M915.7,302.3h-19.1v26.9h-8.7v-75.2h28.4c16.9,0,28.8,9.3,28.8,24.1c0,11.9-7.6,20.4-19.4,23.1l22.8,28
				h-10.8L915.7,302.3z M896.5,294.2H916c11.7,0,20.4-6.1,20.4-16.2c0-10.1-8.6-16-20.4-16h-19.5V294.2z"/>
			<path class="st0" d="M969,262v25.8h39.5v8.1H969v25.2h43.9v8.1h-52.7v-75.2h52.7v8.1H969z"/>
			<path class="st0" d="M1080.3,274.6h-8.7c-1.7-9-8-14.5-20.2-14.5c-11.1,0-18.3,5-18.3,13.5c0,6.6,4.8,10.4,13.7,12.2l12.3,2.3
				c13.5,2.7,21.1,8.7,21.1,19.8c0,13.7-11.3,22.6-28.2,22.6c-18,0-29.8-9.2-31.4-25.4h8.6c1.8,11.3,9.8,17.6,23.2,17.6
				c11.5,0,18.8-5.2,18.8-13.7c0-6-4.1-10.6-13.6-12.3l-14-2.8c-13.4-2.5-19.8-9.4-19.8-19.7c0-13.2,10.8-21.6,27-21.6
				C1065.6,252.6,1078.4,259.1,1080.3,274.6z"/>
			<path class="st0" d="M1150.9,274.6h-8.7c-1.7-9-8-14.5-20.2-14.5c-11.1,0-18.3,5-18.3,13.5c0,6.6,4.8,10.4,13.7,12.2l12.3,2.3
				c13.5,2.7,21.1,8.7,21.1,19.8c0,13.7-11.3,22.6-28.2,22.6c-18,0-29.8-9.2-31.4-25.4h8.6c1.8,11.3,9.8,17.6,23.2,17.6
				c11.5,0,18.8-5.2,18.8-13.7c0-6-4.1-10.6-13.6-12.3l-14-2.8c-13.4-2.5-19.8-9.4-19.8-19.7c0-13.2,10.8-21.6,27-21.6
				C1136.1,252.6,1149,259.1,1150.9,274.6z"/>
		</g>
	</g>
</g>
</svg>
