<?xml version="1.0" encoding="UTF-8"?><svg id="Capa_2" xmlns="http://www.w3.org/2000/svg" viewBox="0 0 73.45 17.56"><defs><style>.cls-1{fill:#fff;}</style></defs><g id="Capa_1-2"><path d="M1.68,2.94c.34.3.81.45,1.42.45s1.06-.16,1.41-.48c.35-.32.52-.73.52-1.23,0-.53-.17-.94-.51-1.24-.34-.3-.81-.45-1.42-.45s-1.06.16-1.41.47c-.35.31-.52.72-.52,1.21,0,.54.17.96.51,1.26Z"/><path d="M24.77,10.31c0-1.04-.15-1.91-.45-2.63-.3-.71-.76-1.25-1.36-1.61-.61-.36-1.37-.54-2.28-.54-.38,0-.78.06-1.17.18-.4.12-.78.28-1.15.48-.37.2-.7.45-1,.74-.24.24-.44.49-.61.76-.16-.39-.36-.72-.58-.99-.34-.4-.75-.7-1.24-.89-.49-.19-1.03-.28-1.64-.28-.4,0-.8.06-1.2.19-.4.12-.78.3-1.13.51s-.67.48-.94.79c-.07.08-.14.17-.21.26l-.05-1.53h-3.04v6.43l-2.02.09v-6.52H1.54v6.65l-1.53.07-.02,2.1,1.54-.07v2.83h3.15v-2.96l2.02-.09v3.05h3.17v-3.18l4.26-.18v3.37h3.17v-3.5l4.32-.18v3.69h3.15v-3.82l1.45-.06.02-2.1-1.46.06v-1.11ZM9.88,12.05v-1.66c0-.31.06-.59.18-.85.12-.26.28-.49.49-.69.21-.2.45-.35.74-.46.29-.11.6-.16.94-.16.41,0,.76.09,1.04.26.28.18.49.43.64.78.15.34.22.76.22,1.24v1.36l-4.26.18ZM17.3,11.74v-1.32c0-.31.06-.59.18-.86.12-.27.28-.5.5-.7.21-.2.47-.35.75-.46s.6-.16.94-.16c.44,0,.81.08,1.09.25.28.17.49.42.64.76.15.34.22.77.22,1.29v1.02l-4.32.18Z"/><path class="cls-1" d="M30.87,4.48c.09-.18.23-.32.41-.42.18-.09.42-.14.7-.14.16,0,.34.04.54.12.2.08.4.18.59.3l.93-2.3c-.33-.28-.72-.5-1.17-.67-.46-.17-.95-.25-1.46-.25-.77,0-1.44.17-2.01.5-.57.34-1.02.8-1.34,1.38-.33.58-.49,1.23-.49,1.95v1.09h-1.75v2.63h1.75v8.67h3.17v-8.67h2.53v-2.63h-2.53v-.88c0-.28.04-.51.13-.69Z"/><path class="cls-1" d="M37.87.45c-.34-.3-.81-.45-1.42-.45s-1.06.16-1.41.47c-.35.31-.52.72-.52,1.21,0,.54.17.96.51,1.26.34.3.81.45,1.42.45s1.06-.16,1.41-.48c.35-.32.52-.73.52-1.23,0-.53-.17-.94-.51-1.24Z"/><rect class="cls-1" x="34.9" y="5.76" width="3.15" height="11.58"/><rect class="cls-1" x="40.11" y="1.14" width="3.15" height="16.2"/><path class="cls-1" d="M61.35,6.07c-.61-.36-1.37-.54-2.28-.54-.38,0-.78.06-1.17.18-.4.12-.78.28-1.15.48-.37.2-.7.45-1,.74-.24.24-.44.49-.61.76-.16-.39-.36-.72-.58-.99-.34-.4-.75-.7-1.24-.89-.49-.19-1.03-.28-1.64-.28-.4,0-.8.06-1.2.19-.4.12-.78.3-1.13.51-.35.22-.67.48-.94.79-.07.08-.14.17-.21.26l-.05-1.53h-3.04v11.58h3.17v-6.94c0-.31.06-.59.18-.85.12-.26.28-.49.49-.69.21-.2.45-.35.74-.46.29-.11.6-.16.94-.16.41,0,.76.09,1.04.26.28.18.49.43.64.78.15.34.22.76.22,1.24v6.83h3.17v-6.92c0-.31.06-.59.18-.86.12-.27.28-.5.5-.7.21-.2.47-.35.75-.46.29-.11.6-.16.94-.16.44,0,.81.08,1.09.25.28.17.49.42.64.76.15.34.22.77.22,1.29v6.81h3.15v-7.03c0-1.04-.15-1.91-.45-2.63-.3-.71-.76-1.25-1.36-1.61Z"/><path class="cls-1" d="M73.27,12.74c-.12-.34-.3-.63-.55-.9-.3-.31-.69-.58-1.19-.81-.5-.23-1.1-.44-1.81-.63-.55-.15-.98-.28-1.3-.39-.32-.12-.56-.22-.72-.31-.15-.1-.26-.23-.34-.37-.08-.15-.12-.3-.12-.46s.03-.31.1-.44c.07-.13.17-.24.3-.34.13-.09.3-.16.5-.21.2-.04.42-.07.68-.07.28,0,.6.06.95.18.35.12.7.28,1.03.48.33.2.63.43.9.68l1.68-1.84c-.37-.36-.8-.68-1.3-.95-.5-.27-1.03-.48-1.61-.62-.58-.15-1.17-.22-1.77-.22s-1.18.08-1.73.25c-.55.17-1.03.4-1.45.71-.42.31-.75.68-.99,1.11-.24.43-.35.91-.35,1.43,0,.44.07.84.21,1.19.14.36.34.69.61,1,.31.32.73.61,1.25.86.52.26,1.16.48,1.92.67.49.13.89.25,1.2.36.31.11.54.21.69.3.27.18.4.42.4.74,0,.16-.03.31-.1.45-.07.14-.17.26-.3.35-.13.1-.29.17-.48.22-.18.05-.39.08-.61.08-.56,0-1.12-.11-1.68-.32-.56-.21-1.06-.56-1.51-1.04l-1.97,1.66c.52.63,1.2,1.12,2.05,1.48.85.36,1.82.54,2.91.54.89,0,1.68-.16,2.39-.48.71-.32,1.27-.76,1.67-1.31.41-.55.61-1.19.61-1.9,0-.41-.06-.78-.18-1.12Z"/></g></svg>