<?xml version="1.0" encoding="UTF-8"?><svg id="Capa_2" xmlns="http://www.w3.org/2000/svg" viewBox="0 0 100.24 17.35"><defs><style>.cls-1{fill:#fff;}</style></defs><g id="Capa_1-2"><path class="cls-1" d="M34.52,14.02c-.3.22-.62.38-.95.48-.34.1-.69.15-1.07.15-.58,0-1.11-.14-1.58-.43-.47-.29-.84-.68-1.11-1.17-.27-.49-.41-1.04-.41-1.64s.13-1.2.39-1.69c.26-.49.62-.88,1.08-1.16.46-.28.99-.42,1.59-.42.38,0,.75.06,1.11.19.36.13.69.31,1,.53.31.22.56.47.77.75l1.71-2.03c-.48-.66-1.15-1.18-2.02-1.56-.86-.37-1.81-.56-2.85-.56-1.11,0-2.1.26-2.98.78-.88.52-1.57,1.23-2.07,2.12-.5.89-.76,1.91-.76,3.05s.25,2.16.76,3.05c.5.89,1.19,1.6,2.07,2.12.88.52,1.87.78,2.98.78.98,0,1.91-.19,2.79-.57.88-.38,1.57-.88,2.05-1.5l-1.69-2.03c-.25.3-.52.56-.82.78Z"/><path class="cls-1" d="M46.25,6.22c-.93-.51-1.98-.77-3.14-.77s-2.24.26-3.17.77c-.93.51-1.66,1.22-2.19,2.11-.53.89-.8,1.92-.8,3.07s.27,2.18.8,3.07c.53.89,1.26,1.6,2.19,2.11.93.51,1.98.77,3.17.77s2.22-.26,3.14-.77c.93-.51,1.65-1.22,2.18-2.11.53-.89.79-1.92.79-3.07s-.26-2.18-.79-3.07c-.53-.89-1.25-1.6-2.18-2.11ZM45.7,13.08c-.26.5-.61.89-1.06,1.17-.45.28-.96.42-1.53.42s-1.1-.14-1.56-.42c-.45-.28-.81-.67-1.07-1.17-.26-.5-.39-1.06-.37-1.68-.01-.63.11-1.2.37-1.69.26-.49.62-.88,1.07-1.17.45-.29.97-.43,1.56-.43s1.08.14,1.53.42c.45.28.81.67,1.06,1.17.26.5.38,1.06.36,1.7.01.62-.11,1.18-.36,1.68Z"/><path class="cls-1" d="M59.13,5.97c-.59-.35-1.33-.52-2.2-.52-.64,0-1.26.13-1.84.39-.58.26-1.08.6-1.5,1.03-.1.1-.2.21-.28.32l-.06-1.5h-2.98v11.45h3.11v-6.88c0-.3.06-.58.19-.84.12-.26.29-.49.5-.69.21-.2.47-.36.77-.47.3-.11.62-.16.98-.16.44-.01.81.06,1.11.22.3.16.52.41.67.76.15.35.22.78.22,1.3v6.77h3.11v-7.01c0-1.02-.15-1.89-.45-2.59-.3-.7-.74-1.22-1.34-1.57Z"/><polygon class="cls-1" points="69.2 5.69 66.81 5.69 66.81 2.79 63.7 2.79 63.7 5.69 61.53 5.69 61.53 8.44 63.7 8.44 63.7 17.14 66.81 17.14 66.81 8.44 69.2 8.44 69.2 5.69"/><path class="cls-1" d="M78.85,7.06c-.49-.51-1.07-.91-1.74-1.2-.67-.29-1.4-.43-2.19-.43-.85,0-1.63.15-2.36.44-.72.3-1.35.71-1.87,1.26-.53.54-.93,1.18-1.23,1.91-.29.74-.44,1.55-.44,2.45,0,1.14.26,2.15.78,3.03.52.88,1.25,1.57,2.19,2.08.94.51,2.04.76,3.3.76.53,0,1.06-.06,1.6-.19.54-.13,1.07-.32,1.58-.57.51-.25.98-.57,1.4-.94l-1.49-2.06c-.48.39-.93.66-1.36.82-.42.16-.89.24-1.4.24-.74,0-1.39-.14-1.94-.42-.55-.28-.97-.67-1.27-1.18-.17-.29-.29-.6-.36-.95h8.26l.02-.95c.03-.81-.09-1.56-.35-2.26-.26-.7-.64-1.31-1.13-1.82ZM77.39,10.21h-5.32c.06-.25.14-.48.24-.69.23-.48.57-.84,1.02-1.08.45-.25.99-.37,1.63-.37.44,0,.83.09,1.18.27.35.18.64.43.87.74.23.31.35.66.38,1.05v.09Z"/><path class="cls-1" d="M90.18,5.97c-.59-.35-1.33-.52-2.2-.52-.64,0-1.26.13-1.84.39-.58.26-1.08.6-1.5,1.03-.1.1-.2.21-.28.32l-.06-1.5h-2.98v11.45h3.11v-6.88c0-.3.06-.58.19-.84.12-.26.29-.49.5-.69.21-.2.47-.36.77-.47.3-.11.62-.16.98-.16.44-.01.81.06,1.11.22.3.16.52.41.67.76.15.35.22.78.22,1.3v6.77h3.11v-7.01c0-1.02-.15-1.89-.45-2.59-.3-.7-.74-1.22-1.34-1.57Z"/><polygon class="cls-1" points="97.86 5.69 97.86 2.79 94.74 2.79 94.74 5.69 92.57 5.69 92.57 8.44 94.74 8.44 94.74 17.14 97.86 17.14 97.86 8.44 100.24 8.44 100.24 5.69 97.86 5.69"/><path d="M1.8,2.91c.34.3.8.44,1.4.44s1.05-.16,1.39-.48c.34-.32.51-.72.51-1.21,0-.52-.17-.93-.5-1.22-.34-.3-.8-.44-1.4-.44s-1.05.16-1.39.47c-.34.31-.51.71-.51,1.2,0,.53.17.95.5,1.24Z"/><path d="M24.63,10.19c0-1.02-.15-1.89-.45-2.6-.3-.71-.75-1.24-1.35-1.59-.6-.35-1.35-.53-2.26-.53-.38,0-.77.06-1.16.17-.39.12-.77.27-1.14.48-.37.2-.69.45-.99.74-.23.23-.44.48-.6.75-.16-.38-.35-.71-.58-.98-.34-.4-.75-.69-1.23-.88-.48-.19-1.02-.28-1.62-.28-.39,0-.79.06-1.18.18-.39.12-.77.29-1.12.51-.35.22-.66.48-.93.78-.07.08-.14.17-.21.25l-.05-1.51h-3v6.35l-1.99.09v-6.44H1.67v6.57l-1.66.07v2.08s1.66-.07,1.66-.07v2.8h3.11v-2.93l1.99-.09v3.02h3.13v-3.15l4.21-.18v3.33h3.13v-3.47l4.27-.18v3.65h3.11v-3.78l1.29-.06v-2.08s-1.29.06-1.29.06v-1.09ZM14.12,11.73l-4.21.18v-1.63c0-.3.06-.58.18-.84.12-.26.28-.49.48-.68.2-.19.45-.35.73-.45.28-.11.6-.16.93-.16.41,0,.75.09,1.03.26.28.17.49.43.64.77.15.34.22.75.22,1.22v1.34ZM21.52,11.41l-4.27.18v-1.29c0-.3.06-.59.18-.85.12-.27.28-.5.49-.69.21-.19.46-.35.74-.45.28-.11.59-.16.93-.16.44,0,.8.08,1.07.25.28.17.49.41.64.75.15.33.22.76.22,1.28v1Z"/></g></svg>