<?xml version="1.0" encoding="UTF-8"?><svg id="Capa_2" xmlns="http://www.w3.org/2000/svg" viewBox="0 0 118.43 21.42"><g id="Capa_1-2"><path d="M118.43,10.46l-5.12.21V.12h-3.8v10.71l-3.01.12v-4.75h-3.68l-.1,1.76c-.9-1.28-2.69-2.11-4.6-2.11-3.49,0-6.05,1.71-7.11,4.56-.09.24-.17.49-.23.74-.04.14-.06.3-.09.45l-5.19.21c.59-1.94,2.44-2.19,3.32-2.19.17,0,.32,0,.47.02v-3.83c-1.43,0-2.9.23-4.04,1.87l-.23-1.49h-3.55v5.78l-2.53.1c-.65-3.65-3.64-6.17-7.59-6.17s-7.19,2.81-7.59,6.79l-2.45.1c-.07-4.45-2.23-6.81-6.28-6.81-2.15,0-3.7.8-4.85,2.53-1.03-2.25-3.14-2.59-4.33-2.59-.64,0-2.71.13-3.77,1.78l-.23-1.54h-3.55v7.57l-3.01.12v-.85c0-4.59-2.17-7.02-6.28-7.02-2.15,0-3.7.8-4.85,2.53-1.03-2.25-3.14-2.59-4.33-2.59-.64,0-2.71.13-3.77,1.78l-.23-1.54h-3.55v8.63l-3.01.12V6.14h-3.83v8.94l-5.44.22v2.75l5.44-.22v3.15h3.83v-3.31l3.01-.12v3.43h3.83v-3.59l5.85-.24v3.83h3.83v-3.98l5.67-.23v4.21h3.83v-4.37l3.01-.12v4.49h3.83v-4.65l5.85-.24v4.89h3.83v-5.05l5.67-.23v5.28h3.83v-5.43l2.58-.11c.74,3.53,3.6,5.86,7.48,5.86,4.11,0,7.09-2.61,7.61-6.48l2.48-.1v6.26h3.83v-6.41l5.2-.21c.3,4.38,3.12,7.07,7.53,7.07,1.64,0,3.76-.8,4.7-2.29l.15,1.85h3.62v-7.28l3.01-.12v7.4h3.8v-7.56l5.12-.21v-2.75ZM16.12,14.65v-1.57c0-1.76,1.02-3.54,2.98-3.54s2.87,1.78,2.87,3.54v1.33l-5.85.24ZM25.8,14.25v-1.18c0-2.29,1.53-3.49,3.04-3.49,1.65,0,2.63,1.28,2.63,3.43v1l-5.67.23ZM71.39,9.41c1.87,0,3.14,1.29,3.62,2.83l-7.35.3c.43-2.14,2.13-3.13,3.73-3.13ZM42.14,13.58v-.51c0-1.76,1.02-3.54,2.98-3.54s2.87,1.78,2.87,3.54v.27l-5.85.24ZM51.82,13.07c0-2.29,1.53-3.49,3.04-3.49,1.63,0,2.61,1.26,2.63,3.37l-5.67.23v-.11ZM71.39,17.77c-1.49,0-2.97-.79-3.56-2.49l7.21-.29c-.52,1.9-2.08,2.78-3.65,2.78ZM98.51,9.29c1.32,0,2.68.6,3.47,1.84l-7.17.29c.67-1.32,1.98-2.14,3.7-2.14ZM98.51,17.89c-2.26,0-3.88-1.49-4.14-3.69l8.25-.34c-.11,1.99-1.4,4.03-4.11,4.03Z"/><path d="M7.36,4.42c1.11,0,2.24-.76,2.24-2.21s-1.16-2.21-2.24-2.21-2.24.69-2.24,2.21,1.13,2.21,2.24,2.21Z"/></g></svg>