<?xml version="1.0" encoding="UTF-8"?><svg id="Capa_2" xmlns="http://www.w3.org/2000/svg" viewBox="0 0 99.09 18.48"><defs><style>.cls-1{fill:#fff;}</style></defs><g id="Capa_1-2"><path d="M2.07,3.1c.36.32.86.47,1.49.47s1.12-.17,1.48-.51c.37-.34.55-.77.55-1.29,0-.55-.18-.99-.54-1.3-.36-.31-.86-.47-1.49-.47s-1.12.17-1.48.5c-.37.33-.55.76-.55,1.28,0,.57.18,1.01.54,1.32Z"/><path d="M25.92,10.85c0-1.09-.16-2.01-.48-2.77-.32-.75-.8-1.32-1.44-1.69-.64-.38-1.44-.56-2.4-.56-.4,0-.82.06-1.24.18-.42.12-.82.29-1.21.51-.39.22-.74.48-1.05.78-.25.25-.46.52-.64.8-.17-.41-.37-.76-.62-1.05-.36-.42-.79-.73-1.31-.93-.51-.2-1.09-.3-1.73-.3-.42,0-.84.07-1.26.2-.42.13-.82.31-1.19.54-.37.23-.7.51-.99.83-.08.09-.15.18-.22.27l-.05-1.61h-3.2v6.78l-1.66.07v-6.85H1.93v6.99l-1.92.08-.02,2.21,1.93-.08v2.99h3.31v-3.13l1.66-.07v3.2h3.34v-3.35l4.48-.19v3.54h3.34v-3.68l4.55-.19v3.87h3.31v-4.02l1.69-.07.02-2.21-1.7.07v-1.17ZM10.24,12.69v-1.75c0-.32.06-.62.19-.9.12-.28.3-.52.51-.73.22-.21.48-.37.78-.48s.63-.17.99-.17c.44,0,.8.09,1.1.28.3.18.52.46.68.82.16.36.23.79.23,1.3v1.44l-4.48.19ZM18.06,12.36v-1.39c0-.32.06-.63.19-.91.12-.28.3-.53.53-.74.23-.21.49-.37.79-.48s.63-.17.99-.17c.47,0,.85.09,1.14.26.3.18.52.44.68.8.16.35.23.81.23,1.36v1.08l-4.55.19Z"/><path class="cls-1" d="M42.63,7.66c-.24-.32-.51-.61-.83-.87-.38-.31-.82-.55-1.33-.73-.51-.18-1.06-.27-1.67-.27-1.07,0-2.03.27-2.87.81-.72.46-1.31,1.08-1.77,1.84v-2.09h-2.66v-.92c0-.29.05-.53.14-.73.09-.19.24-.34.43-.44.19-.1.44-.15.74-.15.17,0,.36.04.57.13.21.08.42.19.62.31l.98-2.42c-.34-.29-.75-.53-1.24-.7-.48-.18-1-.27-1.54-.27-.81,0-1.51.18-2.11.53-.6.35-1.07.84-1.41,1.45-.34.61-.51,1.3-.51,2.05v1.15h-1.84v2.77h1.84v9.13h3.34v-9.13h2.31c-.4.89-.6,1.88-.6,3,0,1.23.24,2.32.72,3.27.48.95,1.14,1.71,1.96,2.26.82.55,1.75.83,2.78.83.58,0,1.12-.09,1.63-.27.51-.18.98-.41,1.39-.71.35-.25.64-.54.9-.85v1.6h3.34V6.06h-3.29v1.6ZM41.2,15.21c-.47.29-1.01.44-1.63.44s-1.14-.15-1.6-.44c-.46-.29-.82-.7-1.09-1.23-.26-.53-.4-1.15-.4-1.86s.13-1.3.4-1.82c.26-.52.63-.93,1.09-1.23.46-.3.99-.45,1.6-.45s1.17.15,1.63.45c.47.3.83.71,1.08,1.23.26.52.39,1.13.39,1.82s-.13,1.32-.39,1.86c-.26.53-.62.94-1.08,1.23Z"/><path class="cls-1" d="M55.67,12.47c-.31-.32-.73-.61-1.25-.85-.52-.25-1.16-.47-1.9-.67-.58-.15-1.03-.29-1.37-.41-.33-.12-.59-.23-.76-.32-.16-.11-.28-.24-.36-.39-.09-.15-.13-.31-.13-.48s.04-.32.11-.46.18-.26.31-.36c.14-.1.32-.17.53-.22.21-.05.45-.07.71-.07.3,0,.63.06,1,.18.37.12.74.29,1.09.51.35.22.66.45.94.71l1.77-1.94c-.39-.38-.84-.72-1.37-1-.52-.28-1.08-.5-1.69-.66-.61-.15-1.23-.23-1.87-.23s-1.24.09-1.82.27c-.58.18-1.08.43-1.53.75-.44.32-.79.71-1.04,1.16-.25.45-.37.96-.37,1.51,0,.46.07.88.22,1.26.15.38.36.73.64,1.05.33.34.77.64,1.32.91.55.27,1.23.5,2.02.7.51.14.93.27,1.26.38.33.12.57.22.72.31.28.18.42.45.42.78,0,.17-.04.33-.11.47-.07.15-.18.27-.31.37-.14.1-.31.18-.5.23-.19.05-.41.08-.64.08-.59,0-1.18-.11-1.77-.33-.59-.22-1.12-.59-1.59-1.09l-2.08,1.75c.54.66,1.26,1.18,2.16,1.56.89.38,1.92.56,3.07.56.93,0,1.77-.17,2.52-.51.75-.34,1.33-.8,1.76-1.38.43-.58.64-1.25.64-2,0-.43-.06-.82-.19-1.18-.12-.35-.32-.67-.58-.94Z"/><path class="cls-1" d="M66.37,6.36c-.63-.37-1.41-.55-2.35-.55-.68,0-1.34.14-1.96.41-.62.28-1.16.64-1.6,1.09-.1.1-.18.2-.27.31V1.2h-3.27v17.05h3.31v-7.33c0-.32.07-.62.2-.9.13-.28.31-.52.54-.74.23-.21.5-.38.82-.5.32-.12.67-.17,1.04-.17.47-.02.86.06,1.18.23.32.17.56.44.71.81.16.37.23.83.23,1.38v7.21h3.31v-7.47c0-1.09-.16-2.01-.48-2.75-.32-.75-.79-1.3-1.42-1.67Z"/><path class="cls-1" d="M72.98.47c-.36-.31-.86-.47-1.49-.47s-1.12.17-1.48.5c-.37.33-.55.76-.55,1.28,0,.57.18,1.01.54,1.32.36.32.86.47,1.49.47s1.12-.17,1.48-.51c.37-.34.55-.77.55-1.29,0-.55-.18-.99-.54-1.3Z"/><rect class="cls-1" x="69.86" y="6.06" width="3.31" height="12.19"/><path class="cls-1" d="M83.94,6.63c-.99-.55-2.1-.82-3.35-.82s-2.38.27-3.37.82c-.99.55-1.77,1.29-2.33,2.25-.57.95-.85,2.04-.85,3.27s.28,2.32.85,3.27c.57.95,1.35,1.7,2.33,2.25.99.55,2.11.82,3.37.82s2.36-.27,3.35-.82c.99-.55,1.76-1.29,2.32-2.25.56-.95.84-2.04.84-3.27s-.28-2.32-.84-3.27c-.56-.95-1.33-1.7-2.32-2.25ZM83.35,13.93c-.27.53-.65.94-1.13,1.24-.48.3-1.03.45-1.63.45s-1.17-.15-1.66-.45c-.48-.3-.86-.71-1.14-1.24-.28-.53-.41-1.13-.4-1.79-.02-.68.12-1.27.4-1.8.28-.52.66-.94,1.14-1.24.48-.31,1.03-.46,1.66-.46s1.15.15,1.63.45c.48.3.86.71,1.13,1.24.27.53.4,1.13.39,1.81.02.66-.11,1.26-.39,1.79Z"/><path class="cls-1" d="M98.61,8.03c-.32-.75-.79-1.3-1.42-1.67-.63-.37-1.41-.55-2.35-.55-.68,0-1.34.14-1.96.41-.62.28-1.16.64-1.6,1.09-.11.11-.21.23-.3.34l-.06-1.6h-3.17v12.19h3.31v-7.33c0-.32.07-.62.2-.9.13-.28.31-.52.54-.74.23-.21.5-.38.82-.5.32-.12.67-.17,1.04-.17.47-.02.86.06,1.18.23.32.17.56.44.71.81.16.37.23.83.23,1.38v7.21h3.31v-7.47c0-1.09-.16-2.01-.48-2.75Z"/></g></svg>